<svg width="94" height="95" viewBox="0 0 94 95" fill="none" xmlns="http://www.w3.org/2000/svg">
<path d="M67.4062 47.0912C67.4062 58.1369 58.4519 67.0912 47.4062 67.0912C36.3605 67.0912 27.4062 58.1369 27.4062 47.0912C27.4062 36.0455 36.3605 27.0912 47.4062 27.0912C58.4519 27.0912 67.4062 36.0455 67.4062 47.0912Z" fill="currentColor"/>
<path d="M38.0939 12.0426C38.0939 14.7048 35.9358 16.863 33.2735 16.863C30.6113 16.863 28.4531 14.7048 28.4531 12.0426C28.4531 9.38033 30.6113 7.22217 33.2735 7.22217C35.9358 7.22217 38.0939 9.38033 38.0939 12.0426Z" fill="currentColor"/>
<path d="M89.2627 51.9117C89.2627 54.5739 87.1046 56.7321 84.4423 56.7321C81.7801 56.7321 79.6219 54.5739 79.6219 51.9117C79.6219 49.2495 81.7801 47.0913 84.4423 47.0913C87.1046 47.0913 89.2627 49.2495 89.2627 51.9117Z" fill="currentColor"/>
<path d="M29.4568 75.8603C29.4568 78.5225 27.2986 80.6807 24.6364 80.6807C21.9741 80.6807 19.816 78.5225 19.816 75.8603C19.816 73.198 21.9741 71.0399 24.6364 71.0399C27.2986 71.0399 29.4568 73.198 29.4568 75.8603Z" fill="currentColor"/>
<path d="M89.9244 67.3545C82.3498 83.2198 66.1588 94.1826 47.4059 94.1826C42.2621 94.1826 37.3119 93.3545 32.6783 91.8301L34.399 86.4707C38.4902 87.8213 42.8622 88.5547 47.4059 88.5547C63.8518 88.5547 78.0601 78.9796 84.7633 65.1006L89.9244 67.3545Z" fill="currentColor"/>
<path d="M20.1754 15.8223C11.4542 23.4236 5.9421 34.6134 5.94202 47.0908C5.94202 55.9324 8.7116 64.1265 13.4274 70.8564L9.11292 74.502C3.57618 66.7808 0.315063 57.3169 0.315063 47.0908C0.315164 32.7136 6.75947 19.8427 16.9156 11.2051L20.1754 15.8223Z" fill="currentColor"/>
<path d="M47.4059 0C70.9564 0 90.468 17.2879 93.9449 39.8652L88.3776 40.6895C85.2996 20.8293 68.1285 5.62695 47.4059 5.62695C46.6962 5.62696 45.9906 5.64445 45.2897 5.67969V0.046875C45.9912 0.0158449 46.6967 4.94768e-06 47.4059 0Z" fill="currentColor"/>
</svg>
