<?xml version="1.0" encoding="utf-8"?>
<!-- Generator: Adobe Illustrator 22.0.1, SVG Export Plug-In . SVG Version: 6.00 Build 0)  -->
<svg version="1.1" id="Lager_1" xmlns="http://www.w3.org/2000/svg" xmlns:xlink="http://www.w3.org/1999/xlink" x="0px" y="0px"
	 viewBox="0 0 24 24" style="enable-background:new 0 0 24 24;" xml:space="preserve">
<style type="text/css">
	.st0{fill:#20232A;}
</style>
<path class="st0" d="M19,14h2c0.6,0,1-0.4,1-1s-0.4-1-1-1h-2v-1c0-0.5-0.1-0.9-0.2-1.4C20.7,8.9,22,7.1,22,5c0-0.6-0.4-1-1-1
	s-1,0.4-1,1c0,1.3-0.9,2.5-2.1,2.9c-0.5-0.6-1.1-1.1-1.9-1.5c0-0.1,0-0.3,0-0.4c0-2.2-1.8-4-4-4S8,3.8,8,6c0,0.1,0,0.3,0,0.4
	C7.3,6.7,6.6,7.2,6.1,7.9C4.8,7.5,4,6.3,4,5c0-0.6-0.4-1-1-1S2,4.4,2,5c0,2.1,1.3,3.9,3.2,4.6C5.1,10.1,5,10.5,5,11v1H3
	c-0.6,0-1,0.4-1,1s0.4,1,1,1h2v1c0,0.5,0,0.9,0.1,1.4C3.3,17.1,2,19,2,21c0,0.6,0.4,1,1,1s1-0.4,1-1c0-1.2,0.7-2.3,1.8-2.7
	c1.8,3.4,6,4.7,9.5,2.9c1.2-0.7,2.3-1.7,2.9-2.9c1.1,0.5,1.8,1.5,1.8,2.7c0,0.6,0.4,1,1,1s1-0.4,1-1c0-2-1.3-3.9-3.1-4.6
	C19,15.9,19,15.5,19,15V14z M11,19.9c-2.3-0.5-4-2.5-4-4.9v-4c0-1.7,1.3-3,3-3h1V19.9z M10,6c0-1.1,0.9-2,2-2s2,0.9,2,2H10z M17,15
	c0,2.4-1.7,4.4-4,4.9V8h1c1.7,0,3,1.3,3,3V15z"/>
</svg>
