<?xml version="1.0" encoding="utf-8"?>
<!-- Generator: Adobe Illustrator 22.0.1, SVG Export Plug-In . SVG Version: 6.00 Build 0)  -->
<svg version="1.1" id="Lager_1" xmlns="http://www.w3.org/2000/svg" xmlns:xlink="http://www.w3.org/1999/xlink" x="0px" y="0px"
	 viewBox="0 0 64 61.5" style="enable-background:new 0 0 64 61.5;" xml:space="preserve">
<style type="text/css">
	.st0{fill:#20232A;}
</style>
<title>Asset 21</title>
<g id="Layer_2">
	<g id="Layer_1-2">
		<path class="st0" d="M36,16.7c1.5-2.5,2.1-5.5,1.5-8.4c-0.5-2.9-2.3-5.4-4.8-6.9c-5-3-11.8-1-15,4.4l-2.3,3.9l18.3,10.9L36,16.7z
			 M31.8,13.3l-9.1-5.4C24.5,5.5,27.6,4.6,30,6c1.2,0.7,2,2,2.3,3.4C32.5,10.7,32.4,12,31.8,13.3z"/>
		<path class="st0" d="M1.5,53.9l1.6,0.8l15.3-8.2L31,25.2L12.6,14.3L0,35.6l0.1,15.8C0.1,52.4,0.6,53.4,1.5,53.9z M14.5,21.6
			l9.2,5.4l-9.2,15.4l-9.1,4.9l0-10.4L14.5,21.6z"/>
		<path class="st0" d="M2.7,56.2h58.7c1.5,0,2.7,1.2,2.7,2.7v0c0,1.5-1.2,2.7-2.7,2.7H2.7c-1.5,0-2.7-1.2-2.7-2.7v0
			C0,57.4,1.2,56.2,2.7,56.2z"/>
	</g>
</g>
</svg>
