<svg xmlns="http://www.w3.org/2000/svg" viewBox="0 0 24 24"><path d="M19 14h2c.6 0 1-.4 1-1s-.4-1-1-1h-2v-1c0-.5-.1-.9-.2-1.4C20.7 8.9 22 7.1 22 5c0-.6-.4-1-1-1s-1 .4-1 1c0 1.3-.9 2.5-2.1 2.9-.5-.6-1.1-1.1-1.9-1.5V6c0-2.2-1.8-4-4-4S8 3.8 8 6v.4c-.7.3-1.4.8-1.9 1.5C4.8 7.5 4 6.3 4 5c0-.6-.4-1-1-1s-1 .4-1 1c0 2.1 1.3 3.9 3.2 4.6-.1.5-.2.9-.2 1.4v1H3c-.6 0-1 .4-1 1s.4 1 1 1h2v1c0 .5 0 .9.1 1.4C3.3 17.1 2 19 2 21c0 .6.4 1 1 1s1-.4 1-1c0-1.2.7-2.3 1.8-2.7 1.8 3.4 6 4.7 9.5 2.9 1.2-.7 2.3-1.7 2.9-2.9 1.1.5 1.8 1.5 1.8 2.7 0 .6.4 1 1 1s1-.4 1-1c0-2-1.3-3.9-3.1-4.6.1-.5.1-.9.1-1.4v-1zm-8 5.9c-2.3-.5-4-2.5-4-4.9v-4c0-1.7 1.3-3 3-3h1v11.9zM10 6c0-1.1.9-2 2-2s2 .9 2 2h-4zm7 9c0 2.4-1.7 4.4-4 4.9V8h1c1.7 0 3 1.3 3 3v4z" fill="#20232a"/></svg>