<svg xmlns="http://www.w3.org/2000/svg" viewBox="0 0 64 61.5"><path d="M36 16.7c1.5-2.5 2.1-5.5 1.5-8.4-.5-2.9-2.3-5.4-4.8-6.9-5-3-11.8-1-15 4.4l-2.3 3.9 18.3 10.9 2.3-3.9zm-4.2-3.4l-9.1-5.4C24.5 5.5 27.6 4.6 30 6c1.2.7 2 2 2.3 3.4.2 1.3.1 2.6-.5 3.9zM1.5 53.9l1.6.8 15.3-8.2L31 25.2 12.6 14.3 0 35.6l.1 15.8c0 1 .5 2 1.4 2.5zm13-32.3l9.2 5.4-9.2 15.4-9.1 4.9V36.9l9.1-15.3zM2.7 56.2h58.7c1.5 0 2.7 1.2 2.7 2.7 0 1.5-1.2 2.7-2.7 2.7H2.7c-1.5 0-2.7-1.2-2.7-2.7 0-1.5 1.2-2.7 2.7-2.7z" fill="#20232a"/></svg>